<svg xmlns="http://www.w3.org/2000/svg" xmlns:xlink="http://www.w3.org/1999/xlink" width="1000" zoomAndPan="magnify" viewBox="0 0 750 749.999995" height="1000" preserveAspectRatio="xMidYMid meet" version="1.0"><defs><clipPath id="3f53331500"><path d="M 77 15.453125 L 638.25 15.453125 L 638.25 734.703125 L 77 734.703125 Z M 77 15.453125 " clip-rule="nonzero"/></clipPath></defs><g clip-path="url(#3f53331500)"><path fill="#cc0000" d="M 341.371094 50.125 C 345.65625 50.808594 349.089844 49.949219 351.320312 47.546875 C 354.0625 44.808594 354.40625 42.058594 352.351562 38.972656 C 349.261719 37.945312 347.375 38.632812 346.34375 41.035156 C 345.316406 44.121094 344.113281 45.492188 342.742188 45.492188 L 342.742188 32.96875 C 341.882812 32.96875 340.6875 32.625 339.308594 31.9375 C 337.9375 30.914062 336.566406 30.738281 335.195312 31.425781 C 335.023438 34.859375 335.710938 38.113281 337.765625 41.546875 C 340.167969 45.148438 341.371094 48.0625 341.371094 50.125 Z M 430.222656 41.035156 C 430.5625 40.003906 421.472656 46.863281 403.121094 61.617188 C 422.160156 124.222656 431.25 177.738281 430.222656 221.992188 C 477.222656 218.21875 514.957031 207.414062 543.777344 189.234375 C 581.339844 165.90625 591.800781 134.34375 574.992188 94.890625 C 566.242188 106.898438 550.117188 111.699219 526.796875 109.296875 C 502.261719 107.070312 488.714844 97.460938 485.964844 80.652344 C 499.347656 55.953125 516.328125 42.058594 536.742188 38.972656 C 546.863281 37.601562 563.671875 40.003906 587 46.003906 C 608.441406 51.496094 625.078125 52.179688 636.742188 48.578125 C 633.480469 62.648438 626.621094 71.21875 616.160156 74.136719 C 628.851562 90.601562 636.230469 111.699219 638.285156 137.605469 L 638.285156 380.660156 C 638.285156 512.738281 637.773438 592.667969 636.742188 620.453125 C 630.738281 617.367188 619.585938 608.449219 603.125 593.351562 L 603.125 223.535156 C 595.746094 227.136719 591.800781 237.429688 591.113281 254.070312 C 590.773438 259.390625 590.941406 267.28125 591.632812 277.742188 C 591.972656 289.746094 592.144531 298.15625 592.144531 302.785156 C 592.144531 460.25 592.65625 552.875 594.027344 580.664062 C 590.429688 582.035156 584.765625 579.285156 577.046875 572.253906 C 565.214844 562.136719 559.214844 556.988281 558.867188 556.648438 L 558.867188 253.554688 C 553.207031 254.238281 549.953125 258.183594 549.261719 265.21875 C 549.09375 267.445312 548.921875 270.535156 548.921875 274.140625 C 549.09375 278.9375 549.261719 281.515625 549.261719 282.199219 C 549.09375 311.359375 549.09375 355.441406 549.261719 414.449219 C 549.605469 476.371094 549.605469 520.621094 549.261719 547.039062 C 536.910156 540.007812 525.417969 530.402344 514.613281 518.394531 C 514.273438 506.730469 514.273438 466.078125 514.613281 396.265625 C 514.957031 344.46875 514.273438 303.125 512.730469 272.765625 C 506.894531 276.023438 503.980469 283.402344 503.640625 294.722656 C 503.640625 298.496094 503.804688 303.300781 504.152344 309.300781 C 504.835938 316.335938 505.183594 321.140625 505.183594 323.367188 C 505.183594 343.609375 505.183594 374.484375 505.183594 416.507812 C 504.835938 459.902344 504.835938 490.777344 505.183594 508.957031 C 504.152344 508.617188 492.3125 499.695312 470.015625 482.203125 C 469.675781 474.484375 469.84375 441.378906 470.527344 382.714844 C 470.703125 340.523438 469.675781 307.585938 466.929688 283.742188 C 462.296875 286.144531 459.722656 291.972656 459.382812 301.410156 C 459.382812 304.332031 459.554688 308.617188 459.894531 313.933594 C 460.242188 319.933594 460.414062 324.054688 460.414062 326.457031 C 460.414062 341.546875 460.414062 365.050781 460.414062 396.78125 C 460.414062 430.914062 460.414062 455.785156 460.414062 471.222656 C 458.351562 470.199219 447.371094 461.621094 427.304688 445.496094 C 425.933594 343.089844 425.421875 292.320312 425.757812 293.351562 C 426.453125 289.917969 420.101562 323.707031 406.550781 394.894531 C 402.265625 416.851562 400.035156 427.996094 400.035156 427.996094 C 400.71875 433.660156 414.441406 451.328125 441.371094 480.832031 C 444.285156 483.746094 452.175781 491.808594 464.871094 504.847656 C 473.617188 513.933594 480.648438 521.652344 485.964844 528.003906 C 483.738281 530.058594 480.308594 530.402344 476.019531 529.027344 C 470.363281 527.316406 466.753906 526.457031 465.386719 526.457031 C 467.101562 529.886719 480.824219 547.898438 506.554688 580.664062 C 538.113281 565.738281 552.867188 558.878906 550.804688 560.074219 C 564.871094 564.535156 572.25 580.664062 572.933594 608.964844 C 571.21875 607.929688 567.957031 605.53125 562.988281 601.929688 C 558.867188 598.496094 555.609375 596.101562 552.867188 594.722656 C 544.460938 591.125 535.027344 591.125 524.21875 594.722656 C 526.621094 599.875 534.167969 605.703125 546.863281 612.390625 C 560.585938 619.421875 569.328125 625.257812 572.933594 630.0625 C 571.902344 636.40625 570.019531 643.957031 566.933594 652.527344 C 562.300781 664.363281 559.554688 671.570312 558.867188 674.140625 C 556.8125 671.570312 555.609375 666.421875 554.921875 659.046875 C 554.238281 650.472656 553.378906 644.980469 552.347656 642.578125 C 544.289062 643.609375 536.226562 639.664062 528.167969 630.914062 C 518.21875 619.941406 511.523438 613.765625 508.097656 612.390625 C 507.75 620.800781 507.925781 631.945312 508.609375 646.011719 C 509.640625 661.105469 509.980469 672.082031 509.640625 678.769531 C 506.378906 679.800781 501.0625 682.03125 494.03125 685.804688 C 487.683594 688.726562 482.367188 690.78125 477.90625 691.8125 C 477.90625 690.78125 481.167969 683.234375 487.511719 669.167969 C 487.511719 670.539062 484.421875 670.027344 477.90625 667.625 C 484.769531 635.207031 488.367188 616.167969 489.054688 610.847656 C 484.421875 610.507812 478.082031 612.5625 470.527344 616.855469 C 460.414062 622.683594 453.894531 625.769531 450.804688 626.457031 L 450.804688 648.589844 C 449.089844 649.613281 445.488281 647.730469 439.828125 643.097656 C 434.171875 637.949219 430.390625 632.976562 428.679688 628 C 428.335938 626.976562 428.335938 619.597656 428.679688 605.875 C 433.824219 604.84375 442.574219 602.273438 455.4375 598.328125 C 466.414062 595.242188 475.503906 593.179688 482.539062 591.808594 C 475.503906 579.117188 461.265625 565.390625 439.828125 550.640625 L 439.828125 585.292969 C 434.507812 579.972656 427.648438 570.367188 419.246094 556.648438 C 410.839844 543.265625 403.980469 533.660156 398.664062 528.003906 C 403.296875 589.925781 406.550781 624.226562 408.613281 630.914062 C 418.039062 665.222656 439.488281 680.148438 472.929688 675.683594 C 466.242188 696.097656 450.460938 706.21875 425.757812 705.875 C 421.988281 705.875 416.496094 704.328125 409.125 701.414062 C 402.4375 698.671875 397.972656 697.46875 395.570312 697.816406 C 389.566406 698.5 383.226562 704.164062 376.53125 714.96875 C 369.5 726.289062 363.496094 732.804688 358.867188 734.519531 C 352.863281 731.777344 346.863281 725.777344 340.851562 716.511719 C 334.164062 706.046875 328.335938 699.359375 323.707031 696.269531 C 310.324219 705.015625 294.375 707.589844 276.015625 703.816406 C 256.464844 699.871094 245.484375 690.4375 242.746094 675.683594 C 276.707031 680.488281 298.320312 665.734375 307.582031 631.433594 C 307.582031 631.773438 311.523438 597.8125 319.242188 529.546875 C 313.585938 532.460938 306.378906 541.550781 297.628906 556.648438 C 288.539062 571.738281 281.503906 580.828125 276.535156 583.75 L 276.535156 552.015625 C 267.445312 556.816406 253.03125 569.511719 233.308594 590.265625 C 238.625 592.667969 248.0625 595.242188 261.4375 598.328125 C 274.132812 601.757812 283.394531 604.671875 289.058594 607.417969 C 290.769531 627.488281 282.882812 641.894531 265.382812 650.644531 C 265.042969 647.558594 265.042969 643.957031 265.382812 639.492188 C 265.726562 635.890625 265.726562 632.632812 265.382812 630.0625 C 261.78125 625.597656 255.78125 621.484375 247.375 617.367188 C 236.222656 612.390625 229.535156 609.136719 227.308594 607.417969 C 228.160156 615.136719 229.875 624.738281 232.277344 636.578125 C 235.539062 651.675781 237.59375 660.9375 238.28125 664.710938 C 238.964844 666.59375 238.113281 667.796875 235.710938 668.136719 C 231.417969 668.136719 229.535156 667.964844 230.222656 667.625 C 230.90625 671.398438 232.449219 675.515625 234.851562 680.316406 C 237.421875 685.636719 239.136719 689.410156 239.824219 691.8125 C 234.851562 691.121094 229.191406 689.066406 223.1875 685.804688 C 216.5 682.03125 211.523438 679.800781 208.089844 678.769531 C 208.089844 643.609375 208.609375 622 209.632812 613.933594 C 203.976562 614.625 197.285156 619.941406 189.566406 630.0625 C 182.878906 638.632812 174.128906 642.414062 163.320312 641.035156 C 163.667969 644.980469 163.320312 650.472656 161.949219 657.160156 C 160.578125 663.851562 160.066406 669.507812 160.40625 674.140625 C 159.722656 673.453125 153.890625 658.875 142.738281 630.0625 C 147.542969 625.597656 156.121094 620.109375 168.472656 613.421875 C 180.476562 607.074219 188.878906 601.417969 193.511719 596.265625 C 178.757812 588.546875 162.636719 592.839844 144.796875 608.964844 C 143.425781 583.058594 149.601562 567.28125 163.320312 561.617188 C 167.441406 561.964844 182.367188 568.3125 208.089844 580.664062 C 221.132812 570.023438 235.878906 551.84375 252.347656 526.457031 C 250.628906 526.457031 247.542969 527.144531 242.746094 528.515625 C 238.796875 529.886719 235.027344 530.230469 231.765625 529.546875 C 240.507812 516.335938 254.574219 499.867188 273.960938 479.800781 C 295.058594 458.359375 309.636719 442.238281 317.695312 431.429688 C 309.976562 401.753906 301.917969 355.613281 293.515625 293.351562 C 287.851562 306.726562 287.339844 333.144531 291.972656 372.769531 C 296.429688 411.1875 295.398438 436.574219 289.058594 448.585938 C 286.308594 453.902344 281.503906 458.359375 274.472656 461.621094 C 262.8125 467.277344 256.464844 470.539062 255.945312 471.222656 C 255.605469 454.761719 255.78125 432.460938 256.464844 404.328125 C 256.976562 372.59375 257.324219 349.785156 257.324219 336.058594 C 257.324219 306.558594 255.78125 289.058594 252.347656 283.742188 C 246 301.238281 243.941406 331.425781 246.34375 374.652344 C 249.085938 430.058594 249.945312 461.449219 249.257812 469.167969 C 248.746094 479.289062 244.117188 487.519531 235.710938 494.378906 C 237.082031 493.355469 228.851562 498.152344 211.179688 508.957031 C 211.523438 487.863281 211.523438 452.183594 211.179688 402.273438 C 210.839844 354.753906 210.839844 319.933594 211.179688 297.808594 C 211.179688 296.09375 211.523438 293.691406 212.210938 290.265625 C 212.554688 287.003906 212.722656 284.429688 212.722656 282.710938 C 212.722656 277.394531 210.152344 273.96875 205.175781 272.765625 C 201.402344 352.355469 200.203125 409.472656 201.574219 444.121094 C 203.632812 487.691406 203.632812 511.878906 201.574219 516.851562 C 199.171875 523.710938 194.03125 529.71875 185.964844 535.035156 C 184.082031 536.40625 180.648438 538.460938 176.015625 541.550781 C 171.558594 543.953125 168.644531 545.667969 166.929688 547.039062 C 167.265625 520.621094 167.101562 476.371094 166.410156 414.449219 C 165.722656 355.441406 165.898438 311.875 166.929688 283.742188 C 166.929688 282.027344 167.101562 279.113281 167.441406 274.652344 C 167.785156 271.394531 167.953125 268.652344 167.953125 266.589844 C 167.613281 260.585938 165.039062 256.300781 160.40625 253.554688 C 156.632812 367.453125 155.777344 442.578125 157.320312 478.773438 C 159.382812 525.941406 158.863281 552.355469 155.949219 558.191406 C 152.515625 564.195312 141.882812 572.253906 123.703125 582.207031 L 123.703125 259.554688 C 123.703125 258.703125 123.875 255.269531 124.214844 249.609375 C 124.5625 245.148438 124.726562 241.722656 124.726562 238.972656 C 123.703125 230.914062 120.269531 225.765625 114.613281 223.535156 C 114.613281 238.800781 113.753906 292.148438 112.210938 383.230469 C 110.835938 453.902344 111.007812 508.105469 112.722656 545.496094 C 113.921875 575.339844 114.613281 590.777344 114.613281 591.808594 C 112.722656 597.8125 100.886719 606.734375 79.445312 618.398438 C 78.761719 584.601562 78.933594 514.96875 79.957031 409.304688 C 80.652344 316.507812 79.957031 246.007812 77.902344 197.8125 C 74.988281 132.457031 82.359375 92.832031 100.027344 78.769531 C 85.621094 56.984375 78.761719 47.375 79.445312 50.125 C 86.480469 51.839844 107.578125 49.4375 142.742188 43.089844 C 172.585938 37.601562 194.371094 40.003906 208.089844 50.125 C 222.503906 61.101562 229.875 70.707031 230.222656 78.769531 C 230.5625 86.488281 227.132812 93.175781 219.753906 98.839844 C 213.066406 104.15625 204.316406 107.753906 193.511719 109.300781 C 168.8125 113.417969 151.828125 108.101562 142.742188 93.347656 C 134.507812 106.039062 131.25 120.277344 133.304688 136.054688 C 136.910156 163.503906 156.121094 184.601562 191.109375 199.347656 C 212.554688 208.785156 245.660156 216.675781 290.601562 223.535156 C 292.484375 208.097656 300.375 189.0625 314.097656 166.589844 C 327.816406 145.152344 335.371094 125.941406 336.742188 108.960938 C 310.324219 110.15625 292.144531 105.011719 282.535156 93.347656 C 284.59375 92.664062 286.480469 92.832031 288.539062 93.863281 C 290.601562 94.71875 292.144531 95.066406 293.515625 94.894531 C 274.816406 80.480469 264.183594 69.847656 261.957031 63.160156 C 279.621094 74.476562 301.917969 81.855469 328.675781 85.285156 C 329.023438 75.847656 323.871094 70.53125 313.238281 69.160156 C 304.496094 68.136719 296.941406 69.335938 290.601562 72.769531 C 284.765625 64.019531 283.050781 53.382812 284.9375 41.035156 C 286.65625 27.992188 291.800781 19.933594 300.03125 16.847656 C 309.464844 15.988281 319.074219 17.53125 328.675781 21.992188 C 329.363281 21.304688 330.90625 20.105469 333.308594 18.390625 C 334.851562 16.671875 336.566406 15.816406 338.285156 15.476562 C 344.632812 16.335938 358.867188 22.507812 380.992188 33.480469 C 397.804688 41.546875 414.09375 44.121094 430.222656 41.035156 Z M 430.222656 41.035156 " fill-opacity="1" fill-rule="nonzero"/></g></svg>