<svg xmlns="http://www.w3.org/2000/svg" xmlns:xlink="http://www.w3.org/1999/xlink" width="2000" zoomAndPan="magnify" viewBox="0 0 1500 299.999988" height="400" preserveAspectRatio="xMidYMid meet" version="1.0"><defs><g/><clipPath id="114078f5cc"><path d="M 1126.578125 0 L 1428.828125 0 L 1428.828125 300 L 1126.578125 300 Z M 1126.578125 0 " clip-rule="nonzero"/></clipPath></defs><g clip-path="url(#114078f5cc)"><path fill="#d9d9d9" d="M 1426.441406 163.121094 L 1403.945312 126.75 C 1402.996094 125.214844 1402.789062 123.367188 1403.375 121.65625 L 1404.617188 118.007812 C 1406.007812 113.929688 1406.316406 109.53125 1405.488281 105.304688 C 1405.054688 103.03125 1404.640625 100.851562 1404.246094 98.757812 C 1401.101562 82.074219 1398.828125 70.023438 1390.394531 56.777344 C 1380.125 40.652344 1365.425781 26.878906 1347.886719 16.957031 C 1337.347656 10.996094 1325.925781 6.519531 1314.089844 3.664062 L 1314.132812 40.664062 L 1274.617188 40.707031 L 1274.597656 22.09375 L 1292.660156 22.074219 L 1292.625 0.078125 L 1270.851562 0.101562 L 1270.851562 0.03125 C 1261.828125 0.402344 1253.316406 1.386719 1245.347656 2.980469 L 1245.367188 21.085938 L 1227.632812 21.105469 L 1227.660156 40.742188 L 1227.660156 40.75 L 1206.386719 40.773438 L 1206.410156 62.820312 L 1184.457031 62.84375 L 1184.480469 84.03125 L 1227.710938 83.984375 L 1227.738281 107.007812 L 1210.003906 107.023438 L 1210.023438 124.757812 L 1227.753906 124.738281 L 1227.738281 107.011719 L 1248.304688 106.988281 L 1248.332031 127.199219 L 1271 127.175781 L 1271.046875 170.40625 L 1227.6875 170.457031 L 1227.710938 194.242188 L 1248.410156 194.21875 L 1248.433594 213.515625 L 1271.101562 213.640625 L 1271.132812 239.140625 L 1288.65625 239.125 L 1288.671875 256.855469 L 1249.429688 256.898438 L 1249.453125 278.144531 L 1227.785156 278.171875 L 1227.808594 299.683594 C 1235 299.683594 1242.230469 299.699219 1249.476562 299.730469 L 1249.453125 278.144531 L 1271.4375 278.121094 L 1271.460938 299.839844 C 1278.65625 299.878906 1285.828125 299.917969 1292.972656 299.941406 L 1292.957031 283.300781 L 1310.6875 283.28125 L 1310.707031 299.96875 C 1320.976562 299.96875 1331.125 299.917969 1341.082031 299.789062 C 1341.023438 288.792969 1344.359375 270.371094 1348.953125 258.972656 C 1348.9375 259.035156 1348.917969 259.070312 1348.917969 259.089844 C 1348.929688 259.050781 1348.960938 258.96875 1348.992188 258.890625 C 1358.5 260.925781 1370.765625 262.964844 1381.753906 262.953125 C 1384.003906 262.953125 1386.195312 262.855469 1388.304688 262.667969 C 1394.839844 262.082031 1399.945312 259.605469 1403.484375 255.320312 C 1409.566406 247.976562 1408.679688 238.042969 1408.636719 237.617188 L 1406.417969 225.082031 C 1406.21875 223.953125 1406.496094 222.777344 1407.171875 221.855469 L 1411.761719 215.667969 C 1412.335938 214.890625 1412.699219 213.996094 1412.804688 213.066406 C 1413.242188 209.40625 1411.417969 206.730469 1409.542969 205.003906 C 1412.546875 202.886719 1413.65625 200.628906 1414.023438 198.9375 C 1414.28125 197.707031 1414.132812 196.382812 1413.589844 195.195312 L 1411.4375 190.46875 C 1410.617188 188.667969 1410.242188 186.730469 1410.371094 184.847656 C 1410.484375 183.148438 1410.902344 182.269531 1411.125 181.917969 C 1412.683594 181.265625 1417.574219 179.203125 1423.105469 176.648438 C 1426.238281 175.199219 1427.449219 173.03125 1427.90625 171.464844 C 1429.074219 167.46875 1426.699219 163.539062 1426.441406 163.121094 Z M 1227.6875 68.644531 L 1227.660156 40.75 L 1227.660156 40.742188 L 1255.554688 40.714844 L 1255.582031 68.613281 Z M 1274.984375 79.878906 L 1292.714844 79.863281 L 1292.734375 97.59375 L 1275 97.613281 Z M 1288.605469 212.847656 L 1288.589844 195.117188 L 1306.320312 195.097656 L 1306.339844 212.832031 Z M 1292.789062 148.070312 L 1292.761719 126.082031 L 1314.75 126.058594 L 1314.773438 148.042969 Z M 1321.558594 182.835938 L 1321.539062 166.480469 L 1337.890625 166.460938 L 1337.910156 182.820312 Z M 1212.667969 166.597656 L 1187.371094 166.628906 L 1187.339844 141.332031 L 1212.636719 141.300781 Z M 1214.167969 212.699219 L 1214.199219 242.25 L 1184.648438 242.28125 L 1184.617188 212.730469 Z M 1156.128906 135.375 L 1156.160156 164.925781 L 1126.609375 164.953125 L 1126.578125 135.40625 Z M 1199.441406 260.46875 L 1199.457031 278.199219 L 1181.726562 278.21875 L 1181.707031 260.484375 Z M 1183.484375 199.070312 L 1165.75 199.089844 L 1165.734375 181.355469 L 1183.464844 181.335938 Z M 1166.746094 117.949219 L 1166.730469 100.214844 L 1184.460938 100.199219 L 1184.480469 117.929688 Z M 1137.15625 77.242188 L 1137.136719 59.515625 L 1154.871094 59.496094 L 1154.886719 77.230469 Z M 1169.363281 39.941406 L 1169.332031 12.046875 L 1197.226562 12.015625 L 1197.257812 39.910156 Z M 1150.304688 213.238281 L 1150.320312 230.972656 L 1132.589844 230.988281 L 1132.570312 213.257812 Z M 1258.28125 156.855469 L 1240.550781 156.875 L 1240.53125 139.140625 L 1258.265625 139.125 Z M 1249.390625 242.214844 L 1231.660156 242.230469 L 1231.640625 224.5 L 1249.375 224.480469 Z M 1249.390625 242.214844 " fill-opacity="1" fill-rule="nonzero"/></g><g fill="#ff7a00" fill-opacity="1"><g transform="translate(0.0379549, 154.114561)"><g><path d="M 63.5625 1.9375 C 47.4375 1.9375 34.878906 -2.523438 25.890625 -11.453125 C 16.910156 -20.378906 12.421875 -33.125 12.421875 -49.6875 L 12.421875 -112.9375 L 38.5625 -112.9375 L 38.5625 -50.65625 C 38.5625 -30.4375 46.953125 -20.328125 63.734375 -20.328125 C 71.910156 -20.328125 78.148438 -22.773438 82.453125 -27.671875 C 86.753906 -32.566406 88.90625 -40.226562 88.90625 -50.65625 L 88.90625 -112.9375 L 114.71875 -112.9375 L 114.71875 -49.6875 C 114.71875 -33.125 110.222656 -20.378906 101.234375 -11.453125 C 92.253906 -2.523438 79.695312 1.9375 63.5625 1.9375 Z M 63.5625 1.9375 "/></g></g></g><g fill="#ff7a00" fill-opacity="1"><g transform="translate(127.176872, 154.114561)"><g><path d="M 50.5 1.9375 C 41.570312 1.9375 32.9375 0.726562 24.59375 -1.6875 C 16.257812 -4.113281 9.566406 -7.257812 4.515625 -11.125 L 13.390625 -30.8125 C 18.234375 -27.269531 23.988281 -24.421875 30.65625 -22.265625 C 37.320312 -20.109375 43.988281 -19.03125 50.65625 -19.03125 C 58.082031 -19.03125 63.566406 -20.132812 67.109375 -22.34375 C 70.660156 -24.550781 72.4375 -27.484375 72.4375 -31.140625 C 72.4375 -33.828125 71.390625 -36.054688 69.296875 -37.828125 C 67.203125 -39.609375 64.515625 -41.035156 61.234375 -42.109375 C 57.953125 -43.179688 53.515625 -44.363281 47.921875 -45.65625 C 39.316406 -47.695312 32.269531 -49.738281 26.78125 -51.78125 C 21.289062 -53.832031 16.582031 -57.113281 12.65625 -61.625 C 8.738281 -66.144531 6.78125 -72.171875 6.78125 -79.703125 C 6.78125 -86.265625 8.550781 -92.207031 12.09375 -97.53125 C 15.644531 -102.851562 21 -107.070312 28.15625 -110.1875 C 35.3125 -113.3125 44.050781 -114.875 54.375 -114.875 C 61.582031 -114.875 68.625 -114.015625 75.5 -112.296875 C 82.382812 -110.578125 88.410156 -108.101562 93.578125 -104.875 L 85.515625 -85.03125 C 75.078125 -90.945312 64.644531 -93.90625 54.21875 -93.90625 C 46.894531 -93.90625 41.484375 -92.71875 37.984375 -90.34375 C 34.492188 -87.976562 32.75 -84.863281 32.75 -81 C 32.75 -77.125 34.765625 -74.242188 38.796875 -72.359375 C 42.835938 -70.484375 49 -68.628906 57.28125 -66.796875 C 65.882812 -64.753906 72.925781 -62.707031 78.40625 -60.65625 C 83.894531 -58.613281 88.601562 -55.390625 92.53125 -50.984375 C 96.457031 -46.578125 98.421875 -40.609375 98.421875 -33.078125 C 98.421875 -26.617188 96.617188 -20.726562 93.015625 -15.40625 C 89.410156 -10.082031 84.003906 -5.859375 76.796875 -2.734375 C 69.585938 0.378906 60.820312 1.9375 50.5 1.9375 Z M 50.5 1.9375 "/></g></g></g><g fill="#ff7a00" fill-opacity="1"><g transform="translate(230.114215, 154.114561)"><g><path d="M 68.09375 1.9375 C 56.363281 1.9375 45.789062 -0.585938 36.375 -5.640625 C 26.96875 -10.703125 19.601562 -17.671875 14.28125 -26.546875 C 8.957031 -35.421875 6.296875 -45.394531 6.296875 -56.46875 C 6.296875 -67.550781 8.957031 -77.523438 14.28125 -86.390625 C 19.601562 -95.265625 26.96875 -102.226562 36.375 -107.28125 C 45.789062 -112.34375 56.363281 -114.875 68.09375 -114.875 C 79.8125 -114.875 90.347656 -112.34375 99.703125 -107.28125 C 109.066406 -102.226562 116.4375 -95.265625 121.8125 -86.390625 C 127.1875 -77.523438 129.875 -67.550781 129.875 -56.46875 C 129.875 -45.394531 127.1875 -35.421875 121.8125 -26.546875 C 116.4375 -17.671875 109.066406 -10.703125 99.703125 -5.640625 C 90.347656 -0.585938 79.8125 1.9375 68.09375 1.9375 Z M 68.09375 -20.328125 C 74.757812 -20.328125 80.78125 -21.859375 86.15625 -24.921875 C 91.53125 -27.992188 95.75 -32.269531 98.8125 -37.75 C 101.882812 -43.238281 103.421875 -49.476562 103.421875 -56.46875 C 103.421875 -63.457031 101.882812 -69.695312 98.8125 -75.1875 C 95.75 -80.675781 91.53125 -84.953125 86.15625 -88.015625 C 80.78125 -91.078125 74.757812 -92.609375 68.09375 -92.609375 C 61.414062 -92.609375 55.390625 -91.078125 50.015625 -88.015625 C 44.640625 -84.953125 40.414062 -80.675781 37.34375 -75.1875 C 34.28125 -69.695312 32.75 -63.457031 32.75 -56.46875 C 32.75 -49.476562 34.28125 -43.238281 37.34375 -37.75 C 40.414062 -32.269531 44.640625 -27.992188 50.015625 -24.921875 C 55.390625 -21.859375 61.414062 -20.328125 68.09375 -20.328125 Z M 68.09375 -20.328125 "/></g></g></g><g fill="#ffffff" fill-opacity="1"><g transform="translate(366.295738, 154.114561)"><g/></g></g><g fill="#ffffff" fill-opacity="1"><g transform="translate(414.705894, 154.114561)"><g><path d="M 30.328125 -102.609375 L 30.328125 -58.25 L 88.734375 -58.25 L 88.734375 -47.921875 L 30.328125 -47.921875 L 30.328125 0 L 18.390625 0 L 18.390625 -112.9375 L 95.84375 -112.9375 L 95.84375 -102.609375 Z M 30.328125 -102.609375 "/></g></g></g><g fill="#ffffff" fill-opacity="1"><g transform="translate(513.932261, 154.114561)"><g><path d="M 92.453125 -84.859375 L 92.453125 0 L 81.484375 0 L 81.484375 -15.484375 C 78.472656 -10.328125 74.332031 -6.320312 69.0625 -3.46875 C 63.789062 -0.613281 57.765625 0.8125 50.984375 0.8125 C 39.898438 0.8125 31.160156 -2.28125 24.765625 -8.46875 C 18.367188 -14.65625 15.171875 -23.71875 15.171875 -35.65625 L 15.171875 -84.859375 L 26.625 -84.859375 L 26.625 -36.78125 C 26.625 -27.851562 28.828125 -21.078125 33.234375 -16.453125 C 37.648438 -11.828125 43.941406 -9.515625 52.109375 -9.515625 C 61.035156 -9.515625 68.082031 -12.226562 73.25 -17.65625 C 78.414062 -23.09375 81 -30.65625 81 -40.34375 L 81 -84.859375 Z M 92.453125 -84.859375 "/></g></g></g><g fill="#ffffff" fill-opacity="1"><g transform="translate(622.516622, 154.114561)"><g><path d="M 38.71875 0.8125 C 31.832031 0.8125 25.242188 -0.179688 18.953125 -2.171875 C 12.660156 -4.160156 7.738281 -6.664062 4.1875 -9.6875 L 9.359375 -18.71875 C 12.910156 -15.914062 17.375 -13.628906 22.75 -11.859375 C 28.125 -10.085938 33.71875 -9.203125 39.53125 -9.203125 C 47.269531 -9.203125 52.992188 -10.410156 56.703125 -12.828125 C 60.421875 -15.242188 62.28125 -18.660156 62.28125 -23.078125 C 62.28125 -26.191406 61.253906 -28.632812 59.203125 -30.40625 C 57.160156 -32.1875 54.582031 -33.53125 51.46875 -34.4375 C 48.351562 -35.351562 44.210938 -36.242188 39.046875 -37.109375 C 32.160156 -38.398438 26.617188 -39.71875 22.421875 -41.0625 C 18.234375 -42.40625 14.660156 -44.691406 11.703125 -47.921875 C 8.742188 -51.148438 7.265625 -55.613281 7.265625 -61.3125 C 7.265625 -68.40625 10.222656 -74.210938 16.140625 -78.734375 C 22.054688 -83.253906 30.28125 -85.515625 40.8125 -85.515625 C 46.300781 -85.515625 51.785156 -84.785156 57.265625 -83.328125 C 62.753906 -81.878906 67.273438 -79.972656 70.828125 -77.609375 L 65.828125 -68.40625 C 58.835938 -73.25 50.5 -75.671875 40.8125 -75.671875 C 33.5 -75.671875 27.988281 -74.378906 24.28125 -71.796875 C 20.570312 -69.210938 18.71875 -65.828125 18.71875 -61.640625 C 18.71875 -58.410156 19.765625 -55.828125 21.859375 -53.890625 C 23.960938 -51.953125 26.570312 -50.523438 29.6875 -49.609375 C 32.800781 -48.691406 37.101562 -47.753906 42.59375 -46.796875 C 49.375 -45.503906 54.804688 -44.210938 58.890625 -42.921875 C 62.972656 -41.628906 66.46875 -39.421875 69.375 -36.296875 C 72.28125 -33.179688 73.734375 -28.878906 73.734375 -23.390625 C 73.734375 -15.972656 70.640625 -10.082031 64.453125 -5.71875 C 58.265625 -1.363281 49.6875 0.8125 38.71875 0.8125 Z M 38.71875 0.8125 "/></g></g></g><g fill="#ffffff" fill-opacity="1"><g transform="translate(701.413741, 154.114561)"><g><path d="M 15.96875 -84.859375 L 27.421875 -84.859375 L 27.421875 0 L 15.96875 0 Z M 21.78125 -103.421875 C 19.414062 -103.421875 17.425781 -104.226562 15.8125 -105.84375 C 14.195312 -107.457031 13.390625 -109.394531 13.390625 -111.65625 C 13.390625 -113.800781 14.195312 -115.679688 15.8125 -117.296875 C 17.425781 -118.910156 19.414062 -119.71875 21.78125 -119.71875 C 24.144531 -119.71875 26.132812 -118.9375 27.75 -117.375 C 29.363281 -115.8125 30.171875 -113.957031 30.171875 -111.8125 C 30.171875 -109.445312 29.363281 -107.457031 27.75 -105.84375 C 26.132812 -104.226562 24.144531 -103.421875 21.78125 -103.421875 Z M 21.78125 -103.421875 "/></g></g></g><g fill="#ffffff" fill-opacity="1"><g transform="translate(744.815226, 154.114561)"><g><path d="M 50.65625 0.8125 C 42.488281 0.8125 35.125 -1.039062 28.5625 -4.75 C 22 -8.46875 16.832031 -13.609375 13.0625 -20.171875 C 9.300781 -26.734375 7.421875 -34.15625 7.421875 -42.4375 C 7.421875 -50.71875 9.300781 -58.140625 13.0625 -64.703125 C 16.832031 -71.265625 22 -76.375 28.5625 -80.03125 C 35.125 -83.6875 42.488281 -85.515625 50.65625 -85.515625 C 58.832031 -85.515625 66.203125 -83.6875 72.765625 -80.03125 C 79.328125 -76.375 84.460938 -71.265625 88.171875 -64.703125 C 91.878906 -58.140625 93.734375 -50.71875 93.734375 -42.4375 C 93.734375 -34.15625 91.878906 -26.734375 88.171875 -20.171875 C 84.460938 -13.609375 79.328125 -8.46875 72.765625 -4.75 C 66.203125 -1.039062 58.832031 0.8125 50.65625 0.8125 Z M 50.65625 -9.359375 C 56.6875 -9.359375 62.09375 -10.726562 66.875 -13.46875 C 71.664062 -16.21875 75.40625 -20.117188 78.09375 -25.171875 C 80.78125 -30.222656 82.125 -35.976562 82.125 -42.4375 C 82.125 -48.882812 80.78125 -54.632812 78.09375 -59.6875 C 75.40625 -64.75 71.664062 -68.648438 66.875 -71.390625 C 62.09375 -74.140625 56.6875 -75.515625 50.65625 -75.515625 C 44.632812 -75.515625 39.226562 -74.140625 34.4375 -71.390625 C 29.65625 -68.648438 25.890625 -64.75 23.140625 -59.6875 C 20.398438 -54.632812 19.03125 -48.882812 19.03125 -42.4375 C 19.03125 -35.976562 20.398438 -30.222656 23.140625 -25.171875 C 25.890625 -20.117188 29.65625 -16.21875 34.4375 -13.46875 C 39.226562 -10.726562 44.632812 -9.359375 50.65625 -9.359375 Z M 50.65625 -9.359375 "/></g></g></g><g fill="#ffffff" fill-opacity="1"><g transform="translate(845.977785, 154.114561)"><g><path d="M 59.21875 -85.515625 C 69.863281 -85.515625 78.332031 -82.421875 84.625 -76.234375 C 90.914062 -70.046875 94.0625 -61.035156 94.0625 -49.203125 L 94.0625 0 L 82.609375 0 L 82.609375 -48.078125 C 82.609375 -56.898438 80.398438 -63.625 75.984375 -68.25 C 71.578125 -72.875 65.285156 -75.1875 57.109375 -75.1875 C 47.972656 -75.1875 40.738281 -72.46875 35.40625 -67.03125 C 30.082031 -61.601562 27.421875 -54.101562 27.421875 -44.53125 L 27.421875 0 L 15.96875 0 L 15.96875 -84.859375 L 26.9375 -84.859375 L 26.9375 -69.21875 C 30.0625 -74.382812 34.390625 -78.390625 39.921875 -81.234375 C 45.460938 -84.085938 51.894531 -85.515625 59.21875 -85.515625 Z M 59.21875 -85.515625 "/></g></g></g><g fill="#d9d9d9" fill-opacity="1"><g transform="translate(19.537953, 211.805534)"><g><path d="M 3.046875 0 L 3.046875 -25.984375 L 18.40625 -25.984375 C 19.75 -25.984375 20.96875 -25.65625 22.0625 -25 C 23.164062 -24.34375 24.046875 -23.460938 24.703125 -22.359375 C 25.359375 -21.265625 25.6875 -20.0625 25.6875 -18.75 C 25.6875 -17.414062 25.359375 -16.195312 24.703125 -15.09375 C 24.046875 -13.988281 23.164062 -13.109375 22.0625 -12.453125 C 20.96875 -11.796875 19.75 -11.46875 18.40625 -11.46875 L 6.09375 -11.46875 L 6.09375 0 Z M 6.09375 -22.9375 L 6.09375 -14.515625 L 18.40625 -14.515625 C 19.175781 -14.515625 19.882812 -14.707031 20.53125 -15.09375 C 21.175781 -15.476562 21.6875 -15.984375 22.0625 -16.609375 C 22.445312 -17.242188 22.640625 -17.957031 22.640625 -18.75 C 22.640625 -19.519531 22.445312 -20.222656 22.0625 -20.859375 C 21.6875 -21.503906 21.175781 -22.007812 20.53125 -22.375 C 19.882812 -22.75 19.175781 -22.9375 18.40625 -22.9375 Z M 6.09375 -22.9375 "/></g></g></g><g fill="#d9d9d9" fill-opacity="1"><g transform="translate(46.56457, 211.805534)"><g><path d="M 29.03125 -13 C 29.03125 -11.21875 28.695312 -9.539062 28.03125 -7.96875 C 27.363281 -6.394531 26.425781 -5.003906 25.21875 -3.796875 C 24.019531 -2.597656 22.632812 -1.664062 21.0625 -1 C 19.5 -0.332031 17.820312 0 16.03125 0 C 14.25 0 12.570312 -0.332031 11 -1 C 9.4375 -1.664062 8.050781 -2.597656 6.84375 -3.796875 C 5.644531 -5.003906 4.710938 -6.394531 4.046875 -7.96875 C 3.378906 -9.539062 3.046875 -11.21875 3.046875 -13 C 3.046875 -14.78125 3.378906 -16.453125 4.046875 -18.015625 C 4.710938 -19.585938 5.644531 -20.972656 6.84375 -22.171875 C 8.050781 -23.378906 9.4375 -24.316406 11 -24.984375 C 12.570312 -25.648438 14.25 -25.984375 16.03125 -25.984375 C 17.820312 -25.984375 19.5 -25.648438 21.0625 -24.984375 C 22.632812 -24.316406 24.019531 -23.378906 25.21875 -22.171875 C 26.425781 -20.972656 27.363281 -19.585938 28.03125 -18.015625 C 28.695312 -16.453125 29.03125 -14.78125 29.03125 -13 Z M 6.09375 -13 C 6.09375 -11.613281 6.34375 -10.316406 6.84375 -9.109375 C 7.351562 -7.910156 8.066406 -6.851562 8.984375 -5.9375 C 9.898438 -5.019531 10.960938 -4.300781 12.171875 -3.78125 C 13.390625 -3.257812 14.675781 -3 16.03125 -3 C 17.414062 -3 18.707031 -3.257812 19.90625 -3.78125 C 21.113281 -4.300781 22.175781 -5.019531 23.09375 -5.9375 C 24.007812 -6.851562 24.726562 -7.910156 25.25 -9.109375 C 25.769531 -10.316406 26.03125 -11.613281 26.03125 -13 C 26.03125 -14.351562 25.769531 -15.632812 25.25 -16.84375 C 24.726562 -18.0625 24.007812 -19.128906 23.09375 -20.046875 C 22.175781 -20.960938 21.113281 -21.671875 19.90625 -22.171875 C 18.707031 -22.679688 17.414062 -22.9375 16.03125 -22.9375 C 14.675781 -22.9375 13.390625 -22.679688 12.171875 -22.171875 C 10.960938 -21.671875 9.898438 -20.960938 8.984375 -20.046875 C 8.066406 -19.128906 7.351562 -18.0625 6.84375 -16.84375 C 6.34375 -15.632812 6.09375 -14.351562 6.09375 -13 Z M 6.09375 -13 "/></g></g></g><g fill="#d9d9d9" fill-opacity="1"><g transform="translate(73.887589, 211.805534)"><g><path d="M 41.921875 -25.984375 L 30.8125 0 L 28.8125 0 L 22.453125 -14.84375 L 16.15625 0 L 14.140625 0 L 3.046875 -25.984375 L 6.34375 -25.984375 L 15.140625 -5.390625 L 22.453125 -22.578125 L 29.8125 -5.390625 L 38.609375 -25.984375 Z M 41.921875 -25.984375 "/></g></g></g><g fill="#d9d9d9" fill-opacity="1"><g transform="translate(118.957326, 211.805534)"><g><path d="M 25.6875 -22.9375 L 6.09375 -22.9375 L 6.09375 -14.515625 L 18.75 -14.515625 L 18.75 -11.46875 L 6.09375 -11.46875 L 6.09375 -3 L 25.6875 -3 L 25.6875 0 L 3.046875 0 L 3.046875 -25.984375 L 25.6875 -25.984375 Z M 25.6875 -22.9375 "/></g></g></g><g fill="#d9d9d9" fill-opacity="1"><g transform="translate(147.840563, 211.805534)"><g><path d="M 25.6875 -18.75 C 25.6875 -17.414062 25.359375 -16.195312 24.703125 -15.09375 C 24.046875 -13.988281 23.164062 -13.109375 22.0625 -12.453125 C 20.96875 -11.796875 19.75 -11.46875 18.40625 -11.46875 L 17.640625 -11.46875 L 27.4375 0 L 23.46875 0 L 13.65625 -11.46875 L 6.09375 -11.46875 L 6.09375 0 L 3.046875 0 L 3.046875 -25.984375 L 18.40625 -25.984375 C 19.75 -25.984375 20.96875 -25.65625 22.0625 -25 C 23.164062 -24.34375 24.046875 -23.460938 24.703125 -22.359375 C 25.359375 -21.265625 25.6875 -20.0625 25.6875 -18.75 Z M 6.09375 -14.515625 L 18.40625 -14.515625 C 19.207031 -14.515625 19.921875 -14.707031 20.546875 -15.09375 C 21.179688 -15.476562 21.6875 -15.984375 22.0625 -16.609375 C 22.445312 -17.242188 22.640625 -17.957031 22.640625 -18.75 C 22.640625 -19.519531 22.445312 -20.222656 22.0625 -20.859375 C 21.6875 -21.503906 21.179688 -22.007812 20.546875 -22.375 C 19.921875 -22.75 19.207031 -22.9375 18.40625 -22.9375 L 6.09375 -22.9375 Z M 6.09375 -14.515625 "/></g></g></g><g fill="#d9d9d9" fill-opacity="1"><g transform="translate(178.431556, 211.805534)"><g><path d="M 25.6875 -22.9375 L 6.09375 -22.9375 L 6.09375 -14.515625 L 18.75 -14.515625 L 18.75 -11.46875 L 6.09375 -11.46875 L 6.09375 -3 L 25.6875 -3 L 25.6875 0 L 3.046875 0 L 3.046875 -25.984375 L 25.6875 -25.984375 Z M 25.6875 -22.9375 "/></g></g></g><g fill="#d9d9d9" fill-opacity="1"><g transform="translate(207.314793, 211.805534)"><g><path d="M 12.65625 -25.984375 C 14.46875 -25.984375 16.15625 -25.648438 17.71875 -24.984375 C 19.289062 -24.316406 20.671875 -23.378906 21.859375 -22.171875 C 23.054688 -20.972656 23.992188 -19.585938 24.671875 -18.015625 C 25.347656 -16.453125 25.6875 -14.78125 25.6875 -13 C 25.6875 -11.21875 25.347656 -9.539062 24.671875 -7.96875 C 23.992188 -6.394531 23.054688 -5.003906 21.859375 -3.796875 C 20.671875 -2.597656 19.289062 -1.664062 17.71875 -1 C 16.15625 -0.332031 14.46875 0 12.65625 0 L 3.046875 0 L 3.046875 -25.984375 Z M 12.65625 -3 C 14.039062 -3 15.332031 -3.257812 16.53125 -3.78125 C 17.738281 -4.300781 18.800781 -5.019531 19.71875 -5.9375 C 20.632812 -6.851562 21.347656 -7.910156 21.859375 -9.109375 C 22.378906 -10.316406 22.640625 -11.613281 22.640625 -13 C 22.640625 -14.351562 22.378906 -15.632812 21.859375 -16.84375 C 21.347656 -18.0625 20.632812 -19.128906 19.71875 -20.046875 C 18.800781 -20.960938 17.738281 -21.671875 16.53125 -22.171875 C 15.332031 -22.679688 14.039062 -22.9375 12.65625 -22.9375 L 6.09375 -22.9375 L 6.09375 -3 Z M 12.65625 -3 "/></g></g></g><g fill="#d9d9d9" fill-opacity="1"><g transform="translate(236.19803, 211.805534)"><g/></g></g><g fill="#d9d9d9" fill-opacity="1"><g transform="translate(249.266037, 211.805534)"><g><path d="M 25.6875 -18.75 C 25.6875 -17.5625 25.425781 -16.472656 24.90625 -15.484375 C 24.382812 -14.492188 23.691406 -13.664062 22.828125 -13 C 23.691406 -12.320312 24.382812 -11.484375 24.90625 -10.484375 C 25.425781 -9.484375 25.6875 -8.398438 25.6875 -7.234375 C 25.6875 -5.898438 25.359375 -4.6875 24.703125 -3.59375 C 24.046875 -2.507812 23.164062 -1.640625 22.0625 -0.984375 C 20.96875 -0.328125 19.75 0 18.40625 0 L 3.046875 0 L 3.046875 -25.984375 L 18.40625 -25.984375 C 19.75 -25.984375 20.96875 -25.65625 22.0625 -25 C 23.164062 -24.34375 24.046875 -23.460938 24.703125 -22.359375 C 25.359375 -21.265625 25.6875 -20.0625 25.6875 -18.75 Z M 22.640625 -7.234375 C 22.640625 -8.023438 22.445312 -8.738281 22.0625 -9.375 C 21.6875 -10.007812 21.175781 -10.515625 20.53125 -10.890625 C 19.882812 -11.273438 19.175781 -11.46875 18.40625 -11.46875 L 6.09375 -11.46875 L 6.09375 -3 L 18.40625 -3 C 19.175781 -3 19.882812 -3.191406 20.53125 -3.578125 C 21.175781 -3.960938 21.6875 -4.476562 22.0625 -5.125 C 22.445312 -5.769531 22.640625 -6.472656 22.640625 -7.234375 Z M 6.09375 -22.9375 L 6.09375 -14.515625 L 18.40625 -14.515625 C 19.175781 -14.515625 19.882812 -14.707031 20.53125 -15.09375 C 21.175781 -15.476562 21.6875 -15.984375 22.0625 -16.609375 C 22.445312 -17.242188 22.640625 -17.957031 22.640625 -18.75 C 22.640625 -19.519531 22.445312 -20.222656 22.0625 -20.859375 C 21.6875 -21.503906 21.175781 -22.007812 20.53125 -22.375 C 19.882812 -22.75 19.175781 -22.9375 18.40625 -22.9375 Z M 6.09375 -22.9375 "/></g></g></g><g fill="#d9d9d9" fill-opacity="1"><g transform="translate(274.807326, 211.805534)"><g><path d="M 17.078125 0 L 14.03125 0 L 14.03125 -8.0625 L 3.046875 -25.984375 L 6.609375 -25.984375 L 15.5625 -11.359375 L 24.5 -25.984375 L 28.0625 -25.984375 L 17.078125 -8.0625 Z M 17.078125 0 "/></g></g></g><g fill="#d9d9d9" fill-opacity="1"><g transform="translate(305.992336, 211.805534)"><g/></g></g><g fill="#d9d9d9" fill-opacity="1"><g transform="translate(319.06032, 211.805534)"><g><path d="M 16.96875 0 L 15.109375 0 L 6.09375 -18.046875 L 6.09375 0 L 3.046875 0 L 3.046875 -25.984375 L 5.5 -25.984375 L 16.03125 -4.90625 L 26.578125 -25.984375 L 29.03125 -25.984375 L 29.03125 0 L 26.03125 0 L 26.03125 -18.046875 Z M 16.96875 0 "/></g></g></g><g fill="#d9d9d9" fill-opacity="1"><g transform="translate(351.210548, 211.805534)"><g><path d="M 6.046875 -7.015625 L 6.578125 -8.234375 L 14.140625 -25.984375 L 16.15625 -25.984375 L 23.71875 -8.234375 L 24.203125 -7.046875 L 27.21875 0 L 23.953125 0 L 21.71875 -5.203125 L 8.578125 -5.203125 L 6.34375 0 L 3.046875 0 Z M 15.140625 -20.609375 L 9.84375 -8.234375 L 20.421875 -8.234375 Z M 15.140625 -20.609375 "/></g></g></g><g fill="#d9d9d9" fill-opacity="1"><g transform="translate(377.160024, 211.805534)"><g><path d="M 16.03125 -22.9375 C 13.289062 -22.9375 10.941406 -21.972656 8.984375 -20.046875 C 7.054688 -18.085938 6.09375 -15.738281 6.09375 -13 C 6.09375 -10.25 7.054688 -7.894531 8.984375 -5.9375 C 10.941406 -3.976562 13.289062 -3 16.03125 -3 C 18.78125 -3 21.132812 -3.976562 23.09375 -5.9375 L 25.25 -3.78125 C 24.007812 -2.570312 22.597656 -1.640625 21.015625 -0.984375 C 19.429688 -0.328125 17.769531 0 16.03125 0 C 14.300781 0 12.644531 -0.328125 11.0625 -0.984375 C 9.476562 -1.640625 8.082031 -2.570312 6.875 -3.78125 C 5.632812 -5.019531 4.6875 -6.429688 4.03125 -8.015625 C 3.375 -9.597656 3.046875 -11.257812 3.046875 -13 C 3.046875 -14.726562 3.375 -16.382812 4.03125 -17.96875 C 4.6875 -19.550781 5.632812 -20.945312 6.875 -22.15625 C 8.132812 -23.445312 9.554688 -24.40625 11.140625 -25.03125 C 12.722656 -25.664062 14.351562 -25.984375 16.03125 -25.984375 C 17.71875 -25.984375 19.351562 -25.664062 20.9375 -25.03125 C 22.519531 -24.40625 23.957031 -23.445312 25.25 -22.15625 L 23.09375 -20.046875 C 21.132812 -21.972656 18.78125 -22.9375 16.03125 -22.9375 Z M 16.03125 -22.9375 "/></g></g></g><g fill="#d9d9d9" fill-opacity="1"><g transform="translate(404.595218, 211.805534)"><g><path d="M 22.640625 -11.46875 L 6.09375 -11.46875 L 6.09375 0 L 3.046875 0 L 3.046875 -25.984375 L 6.09375 -25.984375 L 6.09375 -14.515625 L 22.640625 -14.515625 L 22.640625 -25.984375 L 25.6875 -25.984375 L 25.6875 0 L 22.640625 0 Z M 22.640625 -11.46875 "/></g></g></g><g fill="#d9d9d9" fill-opacity="1"><g transform="translate(433.478455, 211.805534)"><g><path d="M 6.09375 0 L 3.046875 0 L 3.046875 -25.984375 L 6.09375 -25.984375 Z M 6.09375 0 "/></g></g></g><g fill="#d9d9d9" fill-opacity="1"><g transform="translate(442.72258, 211.805534)"><g><path d="M 22.640625 -5.609375 L 22.640625 -25.984375 L 25.65625 -25.984375 L 25.65625 0 L 23.46875 0 L 6.09375 -20.375 L 6.09375 0 L 3.046875 0 L 3.046875 -25.984375 L 5.265625 -25.984375 Z M 22.640625 -5.609375 "/></g></g></g><g fill="#d9d9d9" fill-opacity="1"><g transform="translate(471.605817, 211.805534)"><g><path d="M 25.6875 -22.9375 L 6.09375 -22.9375 L 6.09375 -14.515625 L 18.75 -14.515625 L 18.75 -11.46875 L 6.09375 -11.46875 L 6.09375 -3 L 25.6875 -3 L 25.6875 0 L 3.046875 0 L 3.046875 -25.984375 L 25.6875 -25.984375 Z M 25.6875 -22.9375 "/></g></g></g><g fill="#d9d9d9" fill-opacity="1"><g transform="translate(500.489054, 211.805534)"><g/></g></g><g fill="#d9d9d9" fill-opacity="1"><g transform="translate(513.557061, 211.805534)"><g><path d="M 6.09375 -25.984375 L 6.09375 -3 L 25.6875 -3 L 25.6875 0 L 3.046875 0 L 3.046875 -25.984375 Z M 6.09375 -25.984375 "/></g></g></g><g fill="#d9d9d9" fill-opacity="1"><g transform="translate(542.440298, 211.805534)"><g><path d="M 25.6875 -22.9375 L 6.09375 -22.9375 L 6.09375 -14.515625 L 18.75 -14.515625 L 18.75 -11.46875 L 6.09375 -11.46875 L 6.09375 -3 L 25.6875 -3 L 25.6875 0 L 3.046875 0 L 3.046875 -25.984375 L 25.6875 -25.984375 Z M 25.6875 -22.9375 "/></g></g></g><g fill="#d9d9d9" fill-opacity="1"><g transform="translate(571.323535, 211.805534)"><g><path d="M 6.046875 -7.015625 L 6.578125 -8.234375 L 14.140625 -25.984375 L 16.15625 -25.984375 L 23.71875 -8.234375 L 24.203125 -7.046875 L 27.21875 0 L 23.953125 0 L 21.71875 -5.203125 L 8.578125 -5.203125 L 6.34375 0 L 3.046875 0 Z M 15.140625 -20.609375 L 9.84375 -8.234375 L 20.421875 -8.234375 Z M 15.140625 -20.609375 "/></g></g></g><g fill="#d9d9d9" fill-opacity="1"><g transform="translate(601.728882, 211.805534)"><g><path d="M 25.6875 -18.75 C 25.6875 -17.414062 25.359375 -16.195312 24.703125 -15.09375 C 24.046875 -13.988281 23.164062 -13.109375 22.0625 -12.453125 C 20.96875 -11.796875 19.75 -11.46875 18.40625 -11.46875 L 17.640625 -11.46875 L 27.4375 0 L 23.46875 0 L 13.65625 -11.46875 L 6.09375 -11.46875 L 6.09375 0 L 3.046875 0 L 3.046875 -25.984375 L 18.40625 -25.984375 C 19.75 -25.984375 20.96875 -25.65625 22.0625 -25 C 23.164062 -24.34375 24.046875 -23.460938 24.703125 -22.359375 C 25.359375 -21.265625 25.6875 -20.0625 25.6875 -18.75 Z M 6.09375 -14.515625 L 18.40625 -14.515625 C 19.207031 -14.515625 19.921875 -14.707031 20.546875 -15.09375 C 21.179688 -15.476562 21.6875 -15.984375 22.0625 -16.609375 C 22.445312 -17.242188 22.640625 -17.957031 22.640625 -18.75 C 22.640625 -19.519531 22.445312 -20.222656 22.0625 -20.859375 C 21.6875 -21.503906 21.179688 -22.007812 20.546875 -22.375 C 19.921875 -22.75 19.207031 -22.9375 18.40625 -22.9375 L 6.09375 -22.9375 Z M 6.09375 -14.515625 "/></g></g></g><g fill="#d9d9d9" fill-opacity="1"><g transform="translate(632.319899, 211.805534)"><g><path d="M 22.640625 -5.609375 L 22.640625 -25.984375 L 25.65625 -25.984375 L 25.65625 0 L 23.46875 0 L 6.09375 -20.375 L 6.09375 0 L 3.046875 0 L 3.046875 -25.984375 L 5.265625 -25.984375 Z M 22.640625 -5.609375 "/></g></g></g><g fill="#d9d9d9" fill-opacity="1"><g transform="translate(661.203136, 211.805534)"><g><path d="M 6.09375 0 L 3.046875 0 L 3.046875 -25.984375 L 6.09375 -25.984375 Z M 6.09375 0 "/></g></g></g><g fill="#d9d9d9" fill-opacity="1"><g transform="translate(670.44726, 211.805534)"><g><path d="M 22.640625 -5.609375 L 22.640625 -25.984375 L 25.65625 -25.984375 L 25.65625 0 L 23.46875 0 L 6.09375 -20.375 L 6.09375 0 L 3.046875 0 L 3.046875 -25.984375 L 5.265625 -25.984375 Z M 22.640625 -5.609375 "/></g></g></g><g fill="#d9d9d9" fill-opacity="1"><g transform="translate(698.773491, 211.805534)"><g><path d="M 22.640625 -1.78125 C 20.617188 -0.59375 18.414062 0 16.03125 0 C 14.300781 0 12.644531 -0.328125 11.0625 -0.984375 C 9.476562 -1.640625 8.066406 -2.570312 6.828125 -3.78125 C 5.566406 -5.070312 4.617188 -6.507812 3.984375 -8.09375 C 3.359375 -9.675781 3.046875 -11.304688 3.046875 -12.984375 C 3.046875 -14.671875 3.359375 -16.304688 3.984375 -17.890625 C 4.617188 -19.472656 5.566406 -20.894531 6.828125 -22.15625 C 8.117188 -23.445312 9.554688 -24.40625 11.140625 -25.03125 C 12.722656 -25.664062 14.351562 -25.984375 16.03125 -25.984375 C 17.71875 -25.984375 19.351562 -25.664062 20.9375 -25.03125 C 22.519531 -24.40625 23.941406 -23.445312 25.203125 -22.15625 L 23.09375 -20.046875 C 21.132812 -21.972656 18.78125 -22.9375 16.03125 -22.9375 C 13.289062 -22.9375 10.941406 -21.972656 8.984375 -20.046875 C 8.015625 -19.078125 7.289062 -17.976562 6.8125 -16.75 C 6.332031 -15.53125 6.09375 -14.273438 6.09375 -12.984375 C 6.09375 -11.703125 6.332031 -10.445312 6.8125 -9.21875 C 7.289062 -8 8.015625 -6.90625 8.984375 -5.9375 C 10.941406 -3.976562 13.289062 -3 16.03125 -3 C 18.5625 -3 20.765625 -3.84375 22.640625 -5.53125 L 22.640625 -11.46875 L 13.84375 -11.46875 L 13.84375 -14.515625 L 25.65625 -14.515625 L 25.65625 0 L 22.640625 0 Z M 22.640625 -1.78125 "/></g></g></g><g fill="#d9d9d9" fill-opacity="1"><g transform="translate(727.656728, 211.805534)"><g/></g></g><g fill="#d9d9d9" fill-opacity="1"><g transform="translate(740.724736, 211.805534)"><g><path d="M 6.046875 -7.015625 L 6.578125 -8.234375 L 14.140625 -25.984375 L 16.15625 -25.984375 L 23.71875 -8.234375 L 24.203125 -7.046875 L 27.21875 0 L 23.953125 0 L 21.71875 -5.203125 L 8.578125 -5.203125 L 6.34375 0 L 3.046875 0 Z M 15.140625 -20.609375 L 9.84375 -8.234375 L 20.421875 -8.234375 Z M 15.140625 -20.609375 "/></g></g></g><g fill="#d9d9d9" fill-opacity="1"><g transform="translate(771.130083, 211.805534)"><g><path d="M 22.640625 -5.609375 L 22.640625 -25.984375 L 25.65625 -25.984375 L 25.65625 0 L 23.46875 0 L 6.09375 -20.375 L 6.09375 0 L 3.046875 0 L 3.046875 -25.984375 L 5.265625 -25.984375 Z M 22.640625 -5.609375 "/></g></g></g><g fill="#d9d9d9" fill-opacity="1"><g transform="translate(800.01332, 211.805534)"><g><path d="M 12.65625 -25.984375 C 14.46875 -25.984375 16.15625 -25.648438 17.71875 -24.984375 C 19.289062 -24.316406 20.671875 -23.378906 21.859375 -22.171875 C 23.054688 -20.972656 23.992188 -19.585938 24.671875 -18.015625 C 25.347656 -16.453125 25.6875 -14.78125 25.6875 -13 C 25.6875 -11.21875 25.347656 -9.539062 24.671875 -7.96875 C 23.992188 -6.394531 23.054688 -5.003906 21.859375 -3.796875 C 20.671875 -2.597656 19.289062 -1.664062 17.71875 -1 C 16.15625 -0.332031 14.46875 0 12.65625 0 L 3.046875 0 L 3.046875 -25.984375 Z M 12.65625 -3 C 14.039062 -3 15.332031 -3.257812 16.53125 -3.78125 C 17.738281 -4.300781 18.800781 -5.019531 19.71875 -5.9375 C 20.632812 -6.851562 21.347656 -7.910156 21.859375 -9.109375 C 22.378906 -10.316406 22.640625 -11.613281 22.640625 -13 C 22.640625 -14.351562 22.378906 -15.632812 21.859375 -16.84375 C 21.347656 -18.0625 20.632812 -19.128906 19.71875 -20.046875 C 18.800781 -20.960938 17.738281 -21.671875 16.53125 -22.171875 C 15.332031 -22.679688 14.039062 -22.9375 12.65625 -22.9375 L 6.09375 -22.9375 L 6.09375 -3 Z M 12.65625 -3 "/></g></g></g><g fill="#d9d9d9" fill-opacity="1"><g transform="translate(828.896557, 211.805534)"><g/></g></g><g fill="#d9d9d9" fill-opacity="1"><g transform="translate(841.96461, 211.805534)"><g><path d="M 6.046875 -7.015625 L 6.578125 -8.234375 L 14.140625 -25.984375 L 16.15625 -25.984375 L 23.71875 -8.234375 L 24.203125 -7.046875 L 27.21875 0 L 23.953125 0 L 21.71875 -5.203125 L 8.578125 -5.203125 L 6.34375 0 L 3.046875 0 Z M 15.140625 -20.609375 L 9.84375 -8.234375 L 20.421875 -8.234375 Z M 15.140625 -20.609375 "/></g></g></g><g fill="#d9d9d9" fill-opacity="1"><g transform="translate(872.369911, 211.805534)"><g><path d="M 25.6875 -18.75 C 25.6875 -17.414062 25.359375 -16.195312 24.703125 -15.09375 C 24.046875 -13.988281 23.164062 -13.109375 22.0625 -12.453125 C 20.96875 -11.796875 19.75 -11.46875 18.40625 -11.46875 L 17.640625 -11.46875 L 27.4375 0 L 23.46875 0 L 13.65625 -11.46875 L 6.09375 -11.46875 L 6.09375 0 L 3.046875 0 L 3.046875 -25.984375 L 18.40625 -25.984375 C 19.75 -25.984375 20.96875 -25.65625 22.0625 -25 C 23.164062 -24.34375 24.046875 -23.460938 24.703125 -22.359375 C 25.359375 -21.265625 25.6875 -20.0625 25.6875 -18.75 Z M 6.09375 -14.515625 L 18.40625 -14.515625 C 19.207031 -14.515625 19.921875 -14.707031 20.546875 -15.09375 C 21.179688 -15.476562 21.6875 -15.984375 22.0625 -16.609375 C 22.445312 -17.242188 22.640625 -17.957031 22.640625 -18.75 C 22.640625 -19.519531 22.445312 -20.222656 22.0625 -20.859375 C 21.6875 -21.503906 21.179688 -22.007812 20.546875 -22.375 C 19.921875 -22.75 19.207031 -22.9375 18.40625 -22.9375 L 6.09375 -22.9375 Z M 6.09375 -14.515625 "/></g></g></g><g fill="#d9d9d9" fill-opacity="1"><g transform="translate(899.619024, 211.805534)"><g><path d="M 3.046875 -25.984375 L 25.6875 -25.984375 L 25.6875 -22.9375 L 15.890625 -22.9375 L 15.890625 0 L 12.84375 0 L 12.84375 -22.9375 L 3.046875 -22.9375 Z M 3.046875 -25.984375 "/></g></g></g><g fill="#d9d9d9" fill-opacity="1"><g transform="translate(928.502261, 211.805534)"><g><path d="M 6.09375 0 L 3.046875 0 L 3.046875 -25.984375 L 6.09375 -25.984375 Z M 6.09375 0 "/></g></g></g><g fill="#d9d9d9" fill-opacity="1"><g transform="translate(937.74634, 211.805534)"><g><path d="M 18.75 -11.46875 L 6.09375 -11.46875 L 6.09375 0 L 3.046875 0 L 3.046875 -25.984375 L 25.6875 -25.984375 L 25.6875 -22.9375 L 6.09375 -22.9375 L 6.09375 -14.515625 L 18.75 -14.515625 Z M 18.75 -11.46875 "/></g></g></g><g fill="#d9d9d9" fill-opacity="1"><g transform="translate(966.629577, 211.805534)"><g><path d="M 6.09375 0 L 3.046875 0 L 3.046875 -25.984375 L 6.09375 -25.984375 Z M 6.09375 0 "/></g></g></g><g fill="#d9d9d9" fill-opacity="1"><g transform="translate(975.31674, 211.805534)"><g><path d="M 16.03125 -22.9375 C 13.289062 -22.9375 10.941406 -21.972656 8.984375 -20.046875 C 7.054688 -18.085938 6.09375 -15.738281 6.09375 -13 C 6.09375 -10.25 7.054688 -7.894531 8.984375 -5.9375 C 10.941406 -3.976562 13.289062 -3 16.03125 -3 C 18.78125 -3 21.132812 -3.976562 23.09375 -5.9375 L 25.25 -3.78125 C 24.007812 -2.570312 22.597656 -1.640625 21.015625 -0.984375 C 19.429688 -0.328125 17.769531 0 16.03125 0 C 14.300781 0 12.644531 -0.328125 11.0625 -0.984375 C 9.476562 -1.640625 8.082031 -2.570312 6.875 -3.78125 C 5.632812 -5.019531 4.6875 -6.429688 4.03125 -8.015625 C 3.375 -9.597656 3.046875 -11.257812 3.046875 -13 C 3.046875 -14.726562 3.375 -16.382812 4.03125 -17.96875 C 4.6875 -19.550781 5.632812 -20.945312 6.875 -22.15625 C 8.132812 -23.445312 9.554688 -24.40625 11.140625 -25.03125 C 12.722656 -25.664062 14.351562 -25.984375 16.03125 -25.984375 C 17.71875 -25.984375 19.351562 -25.664062 20.9375 -25.03125 C 22.519531 -24.40625 23.957031 -23.445312 25.25 -22.15625 L 23.09375 -20.046875 C 21.132812 -21.972656 18.78125 -22.9375 16.03125 -22.9375 Z M 16.03125 -22.9375 "/></g></g></g><g fill="#d9d9d9" fill-opacity="1"><g transform="translate(1002.75198, 211.805534)"><g><path d="M 6.09375 0 L 3.046875 0 L 3.046875 -25.984375 L 6.09375 -25.984375 Z M 6.09375 0 "/></g></g></g><g fill="#d9d9d9" fill-opacity="1"><g transform="translate(1011.996058, 211.805534)"><g><path d="M 6.046875 -7.015625 L 6.578125 -8.234375 L 14.140625 -25.984375 L 16.15625 -25.984375 L 23.71875 -8.234375 L 24.203125 -7.046875 L 27.21875 0 L 23.953125 0 L 21.71875 -5.203125 L 8.578125 -5.203125 L 6.34375 0 L 3.046875 0 Z M 15.140625 -20.609375 L 9.84375 -8.234375 L 20.421875 -8.234375 Z M 15.140625 -20.609375 "/></g></g></g><g fill="#d9d9d9" fill-opacity="1"><g transform="translate(1042.401451, 211.805534)"><g><path d="M 6.09375 -25.984375 L 6.09375 -3 L 25.6875 -3 L 25.6875 0 L 3.046875 0 L 3.046875 -25.984375 Z M 6.09375 -25.984375 "/></g></g></g><g fill="#d9d9d9" fill-opacity="1"><g transform="translate(19.537953, 263.55553)"><g><path d="M 6.09375 0 L 3.046875 0 L 3.046875 -25.984375 L 6.09375 -25.984375 Z M 6.09375 0 "/></g></g></g><g fill="#d9d9d9" fill-opacity="1"><g transform="translate(28.782078, 263.55553)"><g><path d="M 22.640625 -5.609375 L 22.640625 -25.984375 L 25.65625 -25.984375 L 25.65625 0 L 23.46875 0 L 6.09375 -20.375 L 6.09375 0 L 3.046875 0 L 3.046875 -25.984375 L 5.265625 -25.984375 Z M 22.640625 -5.609375 "/></g></g></g><g fill="#d9d9d9" fill-opacity="1"><g transform="translate(57.665315, 263.55553)"><g><path d="M 3.046875 -25.984375 L 25.6875 -25.984375 L 25.6875 -22.9375 L 15.890625 -22.9375 L 15.890625 0 L 12.84375 0 L 12.84375 -22.9375 L 3.046875 -22.9375 Z M 3.046875 -25.984375 "/></g></g></g><g fill="#d9d9d9" fill-opacity="1"><g transform="translate(86.548552, 263.55553)"><g><path d="M 25.6875 -22.9375 L 6.09375 -22.9375 L 6.09375 -14.515625 L 18.75 -14.515625 L 18.75 -11.46875 L 6.09375 -11.46875 L 6.09375 -3 L 25.6875 -3 L 25.6875 0 L 3.046875 0 L 3.046875 -25.984375 L 25.6875 -25.984375 Z M 25.6875 -22.9375 "/></g></g></g><g fill="#d9d9d9" fill-opacity="1"><g transform="translate(115.431789, 263.55553)"><g><path d="M 6.09375 -25.984375 L 6.09375 -3 L 25.6875 -3 L 25.6875 0 L 3.046875 0 L 3.046875 -25.984375 Z M 6.09375 -25.984375 "/></g></g></g><g fill="#d9d9d9" fill-opacity="1"><g transform="translate(144.315026, 263.55553)"><g><path d="M 6.09375 -25.984375 L 6.09375 -3 L 25.6875 -3 L 25.6875 0 L 3.046875 0 L 3.046875 -25.984375 Z M 6.09375 -25.984375 "/></g></g></g><g fill="#d9d9d9" fill-opacity="1"><g transform="translate(173.198264, 263.55553)"><g><path d="M 6.09375 0 L 3.046875 0 L 3.046875 -25.984375 L 6.09375 -25.984375 Z M 6.09375 0 "/></g></g></g><g fill="#d9d9d9" fill-opacity="1"><g transform="translate(181.885404, 263.55553)"><g><path d="M 22.640625 -1.78125 C 20.617188 -0.59375 18.414062 0 16.03125 0 C 14.300781 0 12.644531 -0.328125 11.0625 -0.984375 C 9.476562 -1.640625 8.066406 -2.570312 6.828125 -3.78125 C 5.566406 -5.070312 4.617188 -6.507812 3.984375 -8.09375 C 3.359375 -9.675781 3.046875 -11.304688 3.046875 -12.984375 C 3.046875 -14.671875 3.359375 -16.304688 3.984375 -17.890625 C 4.617188 -19.472656 5.566406 -20.894531 6.828125 -22.15625 C 8.117188 -23.445312 9.554688 -24.40625 11.140625 -25.03125 C 12.722656 -25.664062 14.351562 -25.984375 16.03125 -25.984375 C 17.71875 -25.984375 19.351562 -25.664062 20.9375 -25.03125 C 22.519531 -24.40625 23.941406 -23.445312 25.203125 -22.15625 L 23.09375 -20.046875 C 21.132812 -21.972656 18.78125 -22.9375 16.03125 -22.9375 C 13.289062 -22.9375 10.941406 -21.972656 8.984375 -20.046875 C 8.015625 -19.078125 7.289062 -17.976562 6.8125 -16.75 C 6.332031 -15.53125 6.09375 -14.273438 6.09375 -12.984375 C 6.09375 -11.703125 6.332031 -10.445312 6.8125 -9.21875 C 7.289062 -8 8.015625 -6.90625 8.984375 -5.9375 C 10.941406 -3.976562 13.289062 -3 16.03125 -3 C 18.5625 -3 20.765625 -3.84375 22.640625 -5.53125 L 22.640625 -11.46875 L 13.84375 -11.46875 L 13.84375 -14.515625 L 25.65625 -14.515625 L 25.65625 0 L 22.640625 0 Z M 22.640625 -1.78125 "/></g></g></g><g fill="#d9d9d9" fill-opacity="1"><g transform="translate(210.768641, 263.55553)"><g><path d="M 25.6875 -22.9375 L 6.09375 -22.9375 L 6.09375 -14.515625 L 18.75 -14.515625 L 18.75 -11.46875 L 6.09375 -11.46875 L 6.09375 -3 L 25.6875 -3 L 25.6875 0 L 3.046875 0 L 3.046875 -25.984375 L 25.6875 -25.984375 Z M 25.6875 -22.9375 "/></g></g></g><g fill="#d9d9d9" fill-opacity="1"><g transform="translate(239.651879, 263.55553)"><g><path d="M 22.640625 -5.609375 L 22.640625 -25.984375 L 25.65625 -25.984375 L 25.65625 0 L 23.46875 0 L 6.09375 -20.375 L 6.09375 0 L 3.046875 0 L 3.046875 -25.984375 L 5.265625 -25.984375 Z M 22.640625 -5.609375 "/></g></g></g><g fill="#d9d9d9" fill-opacity="1"><g transform="translate(267.978132, 263.55553)"><g><path d="M 16.03125 -22.9375 C 13.289062 -22.9375 10.941406 -21.972656 8.984375 -20.046875 C 7.054688 -18.085938 6.09375 -15.738281 6.09375 -13 C 6.09375 -10.25 7.054688 -7.894531 8.984375 -5.9375 C 10.941406 -3.976562 13.289062 -3 16.03125 -3 C 18.78125 -3 21.132812 -3.976562 23.09375 -5.9375 L 25.25 -3.78125 C 24.007812 -2.570312 22.597656 -1.640625 21.015625 -0.984375 C 19.429688 -0.328125 17.769531 0 16.03125 0 C 14.300781 0 12.644531 -0.328125 11.0625 -0.984375 C 9.476562 -1.640625 8.082031 -2.570312 6.875 -3.78125 C 5.632812 -5.019531 4.6875 -6.429688 4.03125 -8.015625 C 3.375 -9.597656 3.046875 -11.257812 3.046875 -13 C 3.046875 -14.726562 3.375 -16.382812 4.03125 -17.96875 C 4.6875 -19.550781 5.632812 -20.945312 6.875 -22.15625 C 8.132812 -23.445312 9.554688 -24.40625 11.140625 -25.03125 C 12.722656 -25.664062 14.351562 -25.984375 16.03125 -25.984375 C 17.71875 -25.984375 19.351562 -25.664062 20.9375 -25.03125 C 22.519531 -24.40625 23.957031 -23.445312 25.25 -22.15625 L 23.09375 -20.046875 C 21.132812 -21.972656 18.78125 -22.9375 16.03125 -22.9375 Z M 16.03125 -22.9375 "/></g></g></g><g fill="#d9d9d9" fill-opacity="1"><g transform="translate(295.413325, 263.55553)"><g><path d="M 25.6875 -22.9375 L 6.09375 -22.9375 L 6.09375 -14.515625 L 18.75 -14.515625 L 18.75 -11.46875 L 6.09375 -11.46875 L 6.09375 -3 L 25.6875 -3 L 25.6875 0 L 3.046875 0 L 3.046875 -25.984375 L 25.6875 -25.984375 Z M 25.6875 -22.9375 "/></g></g></g><g fill="#d9d9d9" fill-opacity="1"><g transform="translate(324.296563, 263.55553)"><g/></g></g><g fill="#d9d9d9" fill-opacity="1"><g transform="translate(337.364547, 263.55553)"><g><path d="M 16.96875 0 L 15.109375 0 L 6.09375 -18.046875 L 6.09375 0 L 3.046875 0 L 3.046875 -25.984375 L 5.5 -25.984375 L 16.03125 -4.90625 L 26.578125 -25.984375 L 29.03125 -25.984375 L 29.03125 0 L 26.03125 0 L 26.03125 -18.046875 Z M 16.96875 0 "/></g></g></g><g fill="#d9d9d9" fill-opacity="1"><g transform="translate(368.957814, 263.55553)"><g><path d="M 29.03125 -13 C 29.03125 -11.21875 28.695312 -9.539062 28.03125 -7.96875 C 27.363281 -6.394531 26.425781 -5.003906 25.21875 -3.796875 C 24.019531 -2.597656 22.632812 -1.664062 21.0625 -1 C 19.5 -0.332031 17.820312 0 16.03125 0 C 14.25 0 12.570312 -0.332031 11 -1 C 9.4375 -1.664062 8.050781 -2.597656 6.84375 -3.796875 C 5.644531 -5.003906 4.710938 -6.394531 4.046875 -7.96875 C 3.378906 -9.539062 3.046875 -11.21875 3.046875 -13 C 3.046875 -14.78125 3.378906 -16.453125 4.046875 -18.015625 C 4.710938 -19.585938 5.644531 -20.972656 6.84375 -22.171875 C 8.050781 -23.378906 9.4375 -24.316406 11 -24.984375 C 12.570312 -25.648438 14.25 -25.984375 16.03125 -25.984375 C 17.820312 -25.984375 19.5 -25.648438 21.0625 -24.984375 C 22.632812 -24.316406 24.019531 -23.378906 25.21875 -22.171875 C 26.425781 -20.972656 27.363281 -19.585938 28.03125 -18.015625 C 28.695312 -16.453125 29.03125 -14.78125 29.03125 -13 Z M 6.09375 -13 C 6.09375 -11.613281 6.34375 -10.316406 6.84375 -9.109375 C 7.351562 -7.910156 8.066406 -6.851562 8.984375 -5.9375 C 9.898438 -5.019531 10.960938 -4.300781 12.171875 -3.78125 C 13.390625 -3.257812 14.675781 -3 16.03125 -3 C 17.414062 -3 18.707031 -3.257812 19.90625 -3.78125 C 21.113281 -4.300781 22.175781 -5.019531 23.09375 -5.9375 C 24.007812 -6.851562 24.726562 -7.910156 25.25 -9.109375 C 25.769531 -10.316406 26.03125 -11.613281 26.03125 -13 C 26.03125 -14.351562 25.769531 -15.632812 25.25 -16.84375 C 24.726562 -18.0625 24.007812 -19.128906 23.09375 -20.046875 C 22.175781 -20.960938 21.113281 -21.671875 19.90625 -22.171875 C 18.707031 -22.679688 17.414062 -22.9375 16.03125 -22.9375 C 14.675781 -22.9375 13.390625 -22.679688 12.171875 -22.171875 C 10.960938 -21.671875 9.898438 -20.960938 8.984375 -20.046875 C 8.066406 -19.128906 7.351562 -18.0625 6.84375 -16.84375 C 6.34375 -15.632812 6.09375 -14.351562 6.09375 -13 Z M 6.09375 -13 "/></g></g></g><g fill="#d9d9d9" fill-opacity="1"><g transform="translate(400.551058, 263.55553)"><g><path d="M 12.65625 -25.984375 C 14.46875 -25.984375 16.15625 -25.648438 17.71875 -24.984375 C 19.289062 -24.316406 20.671875 -23.378906 21.859375 -22.171875 C 23.054688 -20.972656 23.992188 -19.585938 24.671875 -18.015625 C 25.347656 -16.453125 25.6875 -14.78125 25.6875 -13 C 25.6875 -11.21875 25.347656 -9.539062 24.671875 -7.96875 C 23.992188 -6.394531 23.054688 -5.003906 21.859375 -3.796875 C 20.671875 -2.597656 19.289062 -1.664062 17.71875 -1 C 16.15625 -0.332031 14.46875 0 12.65625 0 L 3.046875 0 L 3.046875 -25.984375 Z M 12.65625 -3 C 14.039062 -3 15.332031 -3.257812 16.53125 -3.78125 C 17.738281 -4.300781 18.800781 -5.019531 19.71875 -5.9375 C 20.632812 -6.851562 21.347656 -7.910156 21.859375 -9.109375 C 22.378906 -10.316406 22.640625 -11.613281 22.640625 -13 C 22.640625 -14.351562 22.378906 -15.632812 21.859375 -16.84375 C 21.347656 -18.0625 20.632812 -19.128906 19.71875 -20.046875 C 18.800781 -20.960938 17.738281 -21.671875 16.53125 -22.171875 C 15.332031 -22.679688 14.039062 -22.9375 12.65625 -22.9375 L 6.09375 -22.9375 L 6.09375 -3 Z M 12.65625 -3 "/></g></g></g><g fill="#d9d9d9" fill-opacity="1"><g transform="translate(428.877335, 263.55553)"><g><path d="M 25.6875 -22.9375 L 6.09375 -22.9375 L 6.09375 -14.515625 L 18.75 -14.515625 L 18.75 -11.46875 L 6.09375 -11.46875 L 6.09375 -3 L 25.6875 -3 L 25.6875 0 L 3.046875 0 L 3.046875 -25.984375 L 25.6875 -25.984375 Z M 25.6875 -22.9375 "/></g></g></g><g fill="#d9d9d9" fill-opacity="1"><g transform="translate(457.760572, 263.55553)"><g><path d="M 6.09375 -25.984375 L 6.09375 -3 L 25.6875 -3 L 25.6875 0 L 3.046875 0 L 3.046875 -25.984375 Z M 6.09375 -25.984375 "/></g></g></g><g fill="#d9d9d9" fill-opacity="1"><g transform="translate(484.044536, 263.55553)"><g><path d="M 18.40625 -3 C 19.175781 -3 19.882812 -3.191406 20.53125 -3.578125 C 21.175781 -3.960938 21.6875 -4.476562 22.0625 -5.125 C 22.445312 -5.769531 22.640625 -6.472656 22.640625 -7.234375 C 22.640625 -8.023438 22.445312 -8.738281 22.0625 -9.375 C 21.6875 -10.007812 21.175781 -10.515625 20.53125 -10.890625 C 19.882812 -11.273438 19.175781 -11.46875 18.40625 -11.46875 L 10.28125 -11.46875 C 8.96875 -11.46875 7.757812 -11.796875 6.65625 -12.453125 C 5.5625 -13.109375 4.6875 -13.988281 4.03125 -15.09375 C 3.375 -16.195312 3.046875 -17.414062 3.046875 -18.75 C 3.046875 -20.0625 3.375 -21.265625 4.03125 -22.359375 C 4.6875 -23.460938 5.5625 -24.34375 6.65625 -25 C 7.757812 -25.65625 8.96875 -25.984375 10.28125 -25.984375 L 18.40625 -25.984375 C 19.75 -25.984375 20.96875 -25.65625 22.0625 -25 C 23.164062 -24.34375 24.046875 -23.460938 24.703125 -22.359375 C 25.359375 -21.265625 25.6875 -20.0625 25.6875 -18.75 L 22.640625 -18.75 C 22.640625 -19.519531 22.445312 -20.222656 22.0625 -20.859375 C 21.6875 -21.503906 21.175781 -22.007812 20.53125 -22.375 C 19.882812 -22.75 19.175781 -22.9375 18.40625 -22.9375 L 10.28125 -22.9375 C 9.507812 -22.9375 8.800781 -22.75 8.15625 -22.375 C 7.519531 -22.007812 7.015625 -21.503906 6.640625 -20.859375 C 6.273438 -20.222656 6.09375 -19.519531 6.09375 -18.75 C 6.09375 -17.957031 6.273438 -17.242188 6.640625 -16.609375 C 7.015625 -15.984375 7.519531 -15.476562 8.15625 -15.09375 C 8.800781 -14.707031 9.507812 -14.515625 10.28125 -14.515625 L 18.40625 -14.515625 C 19.75 -14.515625 20.96875 -14.1875 22.0625 -13.53125 C 23.164062 -12.875 24.046875 -11.992188 24.703125 -10.890625 C 25.359375 -9.796875 25.6875 -8.578125 25.6875 -7.234375 C 25.6875 -5.898438 25.359375 -4.6875 24.703125 -3.59375 C 24.046875 -2.507812 23.164062 -1.640625 22.0625 -0.984375 C 20.96875 -0.328125 19.75 0 18.40625 0 L 10.28125 0 C 8.96875 0 7.757812 -0.328125 6.65625 -0.984375 C 5.5625 -1.640625 4.6875 -2.507812 4.03125 -3.59375 C 3.375 -4.6875 3.046875 -5.898438 3.046875 -7.234375 L 6.09375 -7.234375 C 6.09375 -6.472656 6.273438 -5.769531 6.640625 -5.125 C 7.015625 -4.476562 7.519531 -3.960938 8.15625 -3.578125 C 8.800781 -3.191406 9.507812 -3 10.28125 -3 Z M 18.40625 -3 "/></g></g></g></svg>